<svg width="1370" height="987" viewBox="0 0 1370 987" fill="none" xmlns="http://www.w3.org/2000/svg">
<path d="M1228.04 648.78C1223.44 648.78 1218.86 647.508 1214.86 645.02C1208.36 640.986 1204.07 634.2 1203.21 626.599L1192.36 530.981C1190.81 517.265 1200.67 504.884 1214.39 503.329C1228.11 501.778 1240.48 511.634 1242.04 525.35L1249.31 589.523L1335.92 558.237C1348.91 553.547 1363.23 560.271 1367.92 573.254C1372.61 586.237 1365.89 600.565 1352.91 605.256L1236.53 647.293C1233.78 648.288 1230.9 648.78 1228.04 648.78Z" fill="#3A4069"/>
<path d="M1123.57 729C1112.09 729 1101.75 721.036 1099.18 709.357L1073.93 594.296C1072.03 585.643 1074.85 576.63 1081.35 570.606L1159.42 498.231C1169.54 488.847 1185.35 489.445 1194.74 499.568C1204.13 509.691 1203.53 525.507 1193.4 534.892L1125.82 597.545L1148.01 698.638C1150.97 712.122 1142.44 725.452 1128.96 728.412C1127.15 728.81 1125.35 729 1123.57 729Z" fill="#464D7F"/>
<path d="M1115.49 332.426C1139.33 332.426 1158.66 313.099 1158.66 289.256C1158.66 265.414 1139.33 246.086 1115.49 246.086C1091.65 246.086 1072.32 265.414 1072.32 289.256C1072.32 313.099 1091.65 332.426 1115.49 332.426Z" fill="#EDB59E"/>
<path d="M1358.31 292.875C1350 284.921 1336.81 285.208 1328.86 293.519L1274.55 350.254L1211.33 331.688C1199.81 328.309 1187.62 328.227 1176.07 331.453L1117.99 347.665C1117.99 347.666 1117.99 347.666 1117.99 347.667L1084.84 356.921C1069.12 361.307 1055.77 371.383 1047.23 385.288L1011.5 443.487L939.196 491.446C929.61 497.805 926.993 510.732 933.352 520.318C937.362 526.363 943.982 529.635 950.729 529.635C954.683 529.635 958.682 528.51 962.224 526.161L1038.36 475.661C1040.88 473.986 1043.01 471.782 1044.6 469.201L1082.73 407.083C1085.07 403.278 1088.43 400.298 1092.4 398.418L1134.79 550.227L1241.05 520.56L1199.48 371.631C1199.51 371.642 1199.55 371.65 1199.59 371.66L1274.97 393.796C1276.91 394.365 1278.88 394.641 1280.84 394.641C1286.44 394.64 1291.9 392.38 1295.89 388.213L1358.96 322.326C1366.91 314.015 1366.62 300.83 1358.31 292.875Z" fill="#EDB59E"/>
<path d="M1245.72 385.207L1256.62 344.988L1211.33 331.689C1199.81 328.31 1187.62 328.228 1176.07 331.454L1154.63 337.439C1155.26 339.504 1155.65 341.673 1155.75 343.907C1156.32 356.603 1144.54 367.416 1132.24 367.416C1121.22 367.416 1112.6 359.885 1109.73 349.972L1084.84 356.921C1069.13 361.307 1055.77 371.383 1047.23 385.288L1023.62 423.751L1057.72 447.823L1082.73 407.085C1085.07 403.28 1088.43 400.3 1092.4 398.42L1134.79 550.229L1241.05 520.562L1199.48 371.633C1199.51 371.644 1199.55 371.652 1199.59 371.662L1245.72 385.207Z" fill="#179945"/>
<path d="M1145.34 225.438C1143.62 219.3 1137.26 215.715 1131.12 217.427L1064.92 235.91C1058.78 237.624 1055.2 243.988 1056.91 250.125L1068.98 293.358L1157.41 268.673L1145.34 225.438Z" fill="#55696E"/>
<path d="M1259.46 450.597L1094.54 492.071L964.993 471.021C965.69 466.274 962.455 461.83 957.703 461.057L895.612 450.968C893.454 450.617 891.327 451.76 890.43 453.754C889.531 455.747 890.084 458.097 891.777 459.481L952.822 509.412C953.903 510.296 955.374 510.536 956.68 510.042C957.986 509.547 958.929 508.393 959.153 507.015L960.703 497.473L1084.82 517.64L1249.45 622.823C1253.51 625.417 1258.75 625.248 1262.63 622.397C1266.52 619.546 1268.25 614.601 1267 609.95L1247.68 538.415C1242.4 518.868 1247.97 497.99 1262.29 483.675L1272.45 473.51C1276.8 469.165 1277.71 462.453 1274.68 457.107C1271.64 451.763 1265.42 449.098 1259.46 450.597Z" fill="#8C7216"/>
<path d="M1259.46 450.597L1094.54 492.071L964.993 471.021C965.69 466.274 962.455 461.83 957.703 461.057L895.612 450.968C893.454 450.617 891.327 451.76 890.43 453.754C889.531 455.747 890.084 458.097 891.777 459.481L952.822 509.412C953.903 510.296 955.374 510.536 956.68 510.042C957.986 509.547 958.929 508.393 959.153 507.015L960.703 497.473L1084.82 517.64L1249.45 622.823C1253.51 625.417 1258.75 625.248 1262.63 622.397C1266.52 619.546 1268.25 614.601 1267 609.95L1247.68 538.415C1242.4 518.868 1247.97 497.99 1262.29 483.675L1272.45 473.51C1276.8 469.165 1277.71 462.453 1274.68 457.107C1271.64 451.763 1265.42 449.098 1259.46 450.597ZM1205.74 500.483L1198.25 546.59C1197.73 549.808 1195.76 552.43 1193.11 553.895C1191.17 554.968 1188.88 555.421 1186.52 555.039C1180.95 554.134 1177.17 548.884 1178.08 543.311L1185.57 497.205C1186.47 491.634 1191.72 487.851 1197.29 488.756C1202.87 489.66 1206.65 494.911 1205.74 500.483ZM1231.17 497.439C1225.82 500.401 1219.08 498.466 1216.12 493.119C1213.16 487.771 1215.1 481.034 1220.44 478.073C1225.79 475.112 1232.53 477.046 1235.49 482.394C1238.45 487.74 1236.52 494.478 1231.17 497.439Z" fill="#50555A"/>
<path d="M890.427 453.754C889.528 455.747 890.081 458.097 891.774 459.481L952.82 509.412C953.901 510.296 955.372 510.536 956.678 510.042C957.984 509.547 958.927 508.393 959.151 507.015L960.701 497.475L964.992 471.022C965.69 466.275 962.454 461.831 957.702 461.058L895.611 450.969C893.451 450.618 891.325 451.76 890.427 453.754Z" fill="black"/>
<path d="M1060.05 298.876C1055.21 298.876 1050.77 295.675 1049.4 290.784C1047.76 284.899 1051.2 278.796 1057.08 277.153L1160.25 248.35C1166.14 246.705 1172.24 250.146 1173.89 256.031C1175.53 261.917 1172.09 268.02 1166.2 269.663L1063.03 298.465C1062.04 298.742 1061.04 298.876 1060.05 298.876Z" fill="black"/>
<path d="M370.53 39.5867C353.353 22.9457 353.074 2.87843 353.074 2.68261C353.074 1.2016 351.872 0 350.391 0C348.91 0 347.709 1.20191 347.709 2.68261V32.4506V114.658C339.607 106.441 323.693 104.821 308.857 111.557C298.595 116.22 290.595 124.131 287.454 132.724C285.404 138.334 285.525 143.825 287.797 148.606C291.585 156.571 300.774 160.922 311.494 160.922C317.485 160.922 323.955 159.562 330.225 156.716C340.487 152.053 348.489 144.142 351.628 135.549C352.921 132.007 353.077 128.426 353.077 124.716C353.077 122.704 353.077 120.694 353.077 118.682C353.077 115.809 353.077 112.936 353.077 110.065C353.077 106.634 353.077 103.206 353.077 99.7743C353.077 96.0909 353.077 92.4076 353.077 88.7214C353.077 85.0861 353.077 81.4536 353.077 77.8187C353.077 74.5376 353.077 71.2594 353.077 67.9784C353.077 65.3545 353.077 62.7335 353.077 60.1097C353.077 58.4492 353.077 56.7884 353.077 55.1251C353.077 54.6932 353.077 54.2585 353.077 53.8267C355.902 60.0078 360.189 66.8006 366.802 73.2069C380.422 86.4005 382.386 94.0923 382.598 96.7884C382.708 98.1889 383.877 99.2592 385.27 99.2592C385.305 99.2592 385.34 99.2592 385.377 99.2566C386.818 99.2004 387.952 98.0173 387.952 96.5765V69.9154C388.175 67.8309 388.341 56.8396 370.53 39.5867Z" fill="white"/>
<path d="M950.53 126.587C933.353 109.946 933.074 89.8784 933.074 89.6826C933.074 88.2016 931.872 87 930.391 87C928.91 87 927.709 88.2019 927.709 89.6826V119.451V201.658C919.607 193.441 903.693 191.821 888.857 198.557C878.595 203.22 870.595 211.131 867.454 219.724C865.404 225.334 865.525 230.825 867.797 235.606C871.585 243.571 880.774 247.922 891.494 247.922C897.485 247.922 903.955 246.562 910.225 243.716C920.487 239.053 928.489 231.142 931.628 222.549C932.921 219.007 933.077 215.426 933.077 211.716C933.077 209.704 933.077 207.694 933.077 205.682C933.077 202.809 933.077 199.936 933.077 197.065C933.077 193.634 933.077 190.206 933.077 186.774C933.077 183.091 933.077 179.408 933.077 175.721C933.077 172.086 933.077 168.454 933.077 164.819C933.077 161.538 933.077 158.259 933.077 154.978C933.077 152.355 933.077 149.734 933.077 147.11C933.077 145.449 933.077 143.788 933.077 142.125C933.077 141.693 933.077 141.259 933.077 140.827C935.902 147.008 940.189 153.801 946.802 160.207C960.422 173.401 962.386 181.092 962.598 183.788C962.708 185.189 963.877 186.259 965.27 186.259C965.305 186.259 965.34 186.259 965.377 186.257C966.818 186.2 967.952 185.017 967.952 183.577V156.915C968.175 154.831 968.341 143.84 950.53 126.587Z" fill="white"/>
<path d="M539.462 377.165C552.398 377.165 562.924 366.641 562.924 353.704V281.567L628.615 256.621V306.901C624.682 303.923 619.84 302.089 614.538 302.089C601.602 302.089 591.076 312.614 591.076 325.55C591.076 338.487 601.602 349.011 614.538 349.011C627.474 349.011 638 338.487 638 325.55V221.693C638 220.154 637.244 218.716 635.979 217.836C634.724 216.966 633.106 216.754 631.658 217.299L556.582 245.453C554.753 246.14 553.539 247.891 553.539 249.848V335.054C549.605 332.077 544.763 330.242 539.462 330.242C526.526 330.242 516 340.768 516 353.704C516 366.639 526.526 377.165 539.462 377.165V377.165Z" fill="white"/>
<path d="M783.865 639.407L708.496 623.719C696.715 621.267 689.151 609.727 691.604 597.945C694.056 586.167 705.596 578.604 717.377 581.056L778.96 593.875L814.145 545.477C821.221 535.743 834.847 533.59 844.582 540.666C854.313 547.742 856.469 561.368 849.393 571.103L805.927 630.888C800.944 637.742 792.348 641.173 783.865 639.407V639.407Z" fill="#80391B"/>
<path d="M764.137 590.791L717.377 581.056C705.596 578.604 694.056 586.167 691.604 597.949C689.151 609.731 696.715 621.267 708.496 623.719L753.44 633.075L764.137 590.791Z" fill="#1ED760"/>
<path d="M593.195 984.953C579.842 979.452 573.479 964.17 578.976 950.817L622.543 845.079L625.838 766.377C626.438 751.948 638.645 740.74 653.054 741.344C667.479 741.948 678.688 754.136 678.083 768.564L674.598 851.87C674.469 854.915 673.81 857.917 672.649 860.736L627.327 970.739C621.853 984.029 606.602 990.478 593.195 984.953Z" fill="#748488"/>
<path d="M708.723 986.427C694.598 983.437 685.569 969.558 688.563 955.429L712.676 841.562L680.317 753.332C675.343 739.773 682.302 724.752 695.861 719.781C709.42 714.806 724.438 721.765 729.413 735.325L764.364 830.615C766.056 835.231 766.414 840.229 765.397 845.036L739.721 966.267C736.73 980.392 722.851 989.421 708.723 986.427V986.427Z" fill="#55696E"/>
<path d="M741.206 767.469H625.791V610.955C625.791 594.105 639.452 580.448 656.298 580.448H710.699C727.549 580.448 741.206 594.105 741.206 610.955V767.469Z" fill="#1DB954"/>
<path d="M728.894 521.158C728.894 546.097 708.676 566.315 683.736 566.315C658.797 566.315 638.579 546.097 638.579 521.158C638.579 496.218 658.797 476 683.736 476C708.676 476 728.894 496.218 728.894 521.158Z" fill="#80391B"/>
<path d="M817.779 705.898L731.019 713.067C723.748 713.668 716.66 710.588 712.13 704.865L646.321 621.617C638.859 612.179 640.462 598.475 649.904 591.013C659.339 583.543 673.046 585.154 680.508 594.592L739.073 668.674L814.188 662.467C826.18 661.477 836.707 670.397 837.697 682.389C838.687 694.366 829.783 704.908 817.779 705.898V705.898Z" fill="#80391B"/>
<path d="M714.36 637.411L680.508 594.592C673.046 585.154 659.339 583.543 649.904 591.013C640.462 598.475 638.859 612.179 646.321 621.617L679.062 663.029L714.36 637.411Z" fill="#1ED760"/>
<path d="M852.246 615.442L788.535 551.801C784.184 547.454 784.18 540.405 788.527 536.058C792.87 531.707 799.919 531.704 804.27 536.047L867.981 599.692C872.332 604.035 872.336 611.083 867.989 615.434C863.65 619.781 856.601 619.789 852.246 615.442Z" fill="#50555A"/>
<path d="M809.646 532.791C809.646 546.253 798.73 557.165 785.272 557.165C771.81 557.165 760.894 546.253 760.894 532.791C760.894 519.329 771.81 508.417 785.272 508.417C798.73 508.417 809.646 519.329 809.646 532.791Z" fill="#373C41"/>
<path d="M318.483 402.727V402.79C318.561 402.787 318.569 402.768 318.483 402.727Z" fill="#EDB59E"/>
<path d="M128.918 384.342C129.662 390.981 134.182 396.589 140.512 398.725L210.07 422.196L184.954 540.819H285.853L289.215 524.941C290.013 526.887 291.17 528.723 292.716 530.331C299.3 537.182 310.187 537.393 317.034 530.814L369.605 480.293C373.143 476.893 375.061 472.143 374.874 467.238C374.687 462.334 372.414 457.743 368.629 454.622L321.154 415.48C316.575 411.705 311.151 409.091 305.345 407.861L224.344 390.711L161.884 369.635L152.222 283.289C151.166 273.848 142.657 267.046 133.217 268.11C123.779 269.166 116.982 277.675 118.038 287.114L128.918 384.342ZM305.656 447.291L331.842 468.876L293.229 505.983L305.656 447.291Z" fill="#EDB59E"/>
<path d="M318.483 402.727V402.79C318.561 402.787 318.569 402.768 318.483 402.727Z" fill="#1ED760"/>
<path d="M140.513 398.725L210.071 422.196L184.954 540.819H285.853L289.215 524.941C290.013 526.887 291.17 528.723 292.716 530.331C296.093 533.845 300.602 535.612 305.118 535.612C309.404 535.611 313.698 534.019 317.033 530.813L369.604 480.292C373.142 476.892 375.06 472.142 374.873 467.237C374.686 462.333 372.413 457.742 368.628 454.621L321.153 415.479C316.573 411.704 311.15 409.09 305.344 407.86L287.364 404.053C285.32 413.716 275.806 421.234 265.925 421.234C253.688 421.234 244.626 411.232 244.096 399.405C244.027 397.89 244.152 396.403 244.44 394.964L224.342 390.708L161.883 369.633L159.703 350.151L125.739 355.935L128.918 384.34C129.662 390.981 134.182 396.589 140.513 398.725ZM305.656 447.291L331.842 468.876L293.229 505.983L305.656 447.291Z" fill="#1ED760"/>
<path d="M276.12 386.154C297.452 386.154 314.744 368.861 314.744 347.53C314.744 326.198 297.452 308.906 276.12 308.906C254.789 308.906 237.496 326.198 237.496 347.53C237.496 368.861 254.789 386.154 276.12 386.154Z" fill="#EDB59E"/>
<path d="M336.284 360.639L320.043 357.2L321.981 348.047C324.481 336.241 322.233 324.17 315.653 314.054C309.074 303.939 298.949 296.991 287.143 294.492C262.775 289.33 238.749 304.961 233.587 329.331L231.649 338.484L215.408 335.044L217.346 325.891C224.403 292.566 257.246 271.193 290.582 278.25C306.725 281.668 320.572 291.168 329.57 305C338.568 318.832 341.64 335.341 338.222 351.485L336.284 360.639Z" fill="#87AFB9"/>
<path d="M237.356 318.506C235.416 316.764 233.128 315.537 230.562 314.993C220.596 312.882 210.258 321.837 207.473 334.992C204.687 348.148 210.509 360.524 220.475 362.633C223.04 363.176 225.63 362.982 228.109 362.175L237.356 318.506Z" fill="#DD3E3E"/>
<path d="M322.931 336.591C325.411 335.785 328 335.589 330.565 336.133C340.531 338.244 346.353 350.619 343.567 363.774C340.781 376.93 330.444 385.884 320.478 383.773C317.913 383.23 315.624 382.002 313.684 380.26L322.931 336.591Z" fill="#DD3E3E"/>
<path d="M119.051 779.674H0V553.737C0 546.503 5.864 540.64 13.097 540.64H105.953C113.187 540.64 119.05 546.504 119.05 553.737V779.674H119.051Z" fill="#87AFB9"/>
<path d="M509.111 780H390.059V554.062C390.059 546.828 395.923 540.965 403.156 540.965H496.012C503.246 540.965 509.109 546.829 509.109 554.062V780H509.111Z" fill="#87AFB9"/>
<path d="M343.314 540.802H337.049V537.363H236.334V540.802H227.665V537.363H201.656V540.802H191.51V537.363H165.501V540.816C158.404 540.974 152.697 546.765 152.697 553.899V779.837H356.412V553.9C356.413 546.666 350.548 540.802 343.314 540.802Z" fill="#55696E"/>
<path d="M227.665 540.818V529.211C227.665 527.072 225.931 525.337 223.791 525.337H205.529C203.39 525.337 201.655 527.071 201.655 529.211V540.818H227.665V540.818Z" fill="#B03128"/>
<path d="M337.05 540.818V524.231C337.05 522.092 335.316 520.357 333.176 520.357H240.208C238.069 520.357 236.334 522.091 236.334 524.231V540.818H337.05Z" fill="#3C5A73"/>
<path d="M191.511 540.818V529.211C191.511 527.072 189.777 525.337 187.637 525.337H169.375C167.236 525.337 165.501 527.071 165.501 529.211V540.818H191.511V540.818Z" fill="#05CDFF"/>
<path d="M59.526 647.332C81.3782 647.332 99.093 629.617 99.093 607.764C99.093 585.912 81.3782 568.198 59.526 568.198C37.6737 568.198 19.959 585.912 19.959 607.764C19.959 629.617 37.6737 647.332 59.526 647.332Z" fill="#55696E"/>
<path d="M59.526 622.43C67.6252 622.43 74.191 615.864 74.191 607.765C74.191 599.665 67.6252 593.1 59.526 593.1C51.4267 593.1 44.861 599.665 44.861 607.765C44.861 615.864 51.4267 622.43 59.526 622.43Z" fill="#87AFB9"/>
<path d="M59.526 731.998C74.6542 731.998 86.918 719.734 86.918 704.606C86.918 689.477 74.6542 677.214 59.526 677.214C44.3979 677.214 32.134 689.477 32.134 704.606C32.134 719.734 44.3979 731.998 59.526 731.998Z" fill="#55696E"/>
<path d="M59.526 714.758C65.1328 714.758 69.678 710.212 69.678 704.606C69.678 698.999 65.1328 694.454 59.526 694.454C53.9192 694.454 49.374 698.999 49.374 704.606C49.374 710.212 53.9192 714.758 59.526 714.758Z" fill="#87AFB9"/>
<path d="M449.582 644.565C471.434 644.565 489.149 626.85 489.149 604.998C489.149 583.145 471.434 565.431 449.582 565.431C427.73 565.431 410.015 583.145 410.015 604.998C410.015 626.85 427.73 644.565 449.582 644.565Z" fill="#55696E"/>
<path d="M449.582 619.663C457.681 619.663 464.247 613.097 464.247 604.997C464.247 596.898 457.681 590.333 449.582 590.333C441.483 590.333 434.917 596.898 434.917 604.997C434.917 613.097 441.483 619.663 449.582 619.663Z" fill="#87AFB9"/>
<path d="M449.582 729.231C464.71 729.231 476.974 716.967 476.974 701.839C476.974 686.71 464.71 674.447 449.582 674.447C434.454 674.447 422.19 686.71 422.19 701.839C422.19 716.967 434.454 729.231 449.582 729.231Z" fill="#55696E"/>
<path d="M449.582 711.991C455.189 711.991 459.734 707.445 459.734 701.839C459.734 696.232 455.189 691.687 449.582 691.687C443.975 691.687 439.43 696.232 439.43 701.839C439.43 707.445 443.975 711.991 449.582 711.991Z" fill="#87AFB9"/>
<path d="M326.312 567.479H177.574V754.931H326.312V567.479Z" fill="#415050"/>
<path d="M323.641 476.757L293.198 506.012C286.349 512.593 286.132 523.481 292.714 530.33C296.091 533.844 300.6 535.611 305.116 535.611C309.402 535.611 313.696 534.018 317.031 530.813L349.047 500.045L323.641 476.757Z" fill="#EDB59E"/>
</svg>
