<svg width="168" height="122" viewBox="0 0 168 122" fill="none" xmlns="http://www.w3.org/2000/svg">
<path d="M150.656 79.5923C150.091 79.5923 149.53 79.4363 149.039 79.131C148.241 78.6361 147.715 77.8036 147.609 76.8712L146.279 65.1407C146.088 63.4581 147.298 61.9392 148.981 61.7484C150.665 61.5581 152.182 62.7673 152.373 64.4499L153.266 72.3227L163.891 68.4845C165.484 67.9091 167.241 68.734 167.817 70.3268C168.392 71.9195 167.567 73.6773 165.975 74.2528L151.698 79.4099C151.36 79.532 151.007 79.5923 150.656 79.5923Z" fill="#3A4069"/>
<path d="M137.84 89.4337C136.431 89.4337 135.162 88.4567 134.848 87.0239L131.749 72.9082C131.516 71.8467 131.863 70.741 132.66 70.0019L142.237 61.123C143.479 59.9717 145.419 60.0451 146.571 61.287C147.722 62.5289 147.649 64.4692 146.407 65.6205L138.116 73.3068L140.838 85.7089C141.201 87.3631 140.155 88.9984 138.5 89.3616C138.279 89.4104 138.057 89.4337 137.84 89.4337Z" fill="#464D7F"/>
<path d="M136.848 40.7821C139.773 40.7821 142.144 38.4109 142.144 35.486C142.144 32.561 139.773 30.1899 136.848 30.1899C133.923 30.1899 131.552 32.561 131.552 35.486C131.552 38.4109 133.923 40.7821 136.848 40.7821Z" fill="#EDB59E"/>
<path d="M166.637 35.9299C165.618 34.9541 164 34.9893 163.024 36.0089L156.362 42.9692L148.605 40.6915C147.193 40.2769 145.697 40.2669 144.28 40.6626L137.155 42.6515C137.155 42.6517 137.155 42.6517 137.155 42.6518L133.088 43.7871C131.16 44.3251 129.521 45.5613 128.474 47.2671L124.09 54.407L115.221 60.2906C114.044 61.0707 113.723 62.6566 114.504 63.8326C114.996 64.5742 115.808 64.9756 116.635 64.9756C117.12 64.9756 117.611 64.8376 118.046 64.5494L127.386 58.3541C127.695 58.1486 127.957 57.8782 128.151 57.5616L132.83 49.9409C133.116 49.4741 133.529 49.1085 134.016 48.8779L139.215 67.5018L152.252 63.8623L147.152 45.5917C147.156 45.593 147.161 45.594 147.166 45.5952L156.413 48.3109C156.651 48.3807 156.893 48.4145 157.133 48.4145C157.82 48.4144 158.49 48.1372 158.979 47.626L166.717 39.5429C167.692 38.5234 167.657 36.9058 166.637 35.9299Z" fill="#EDB59E"/>
<path d="M152.825 47.2572L154.161 42.3231L148.605 40.6916C147.193 40.2771 145.697 40.267 144.28 40.6628L141.65 41.397C141.727 41.6504 141.775 41.9165 141.787 42.1905C141.857 43.7481 140.412 45.0746 138.903 45.0746C137.552 45.0746 136.494 44.1507 136.142 42.9346L133.088 43.7871C131.16 44.3252 129.522 45.5613 128.474 47.2671L125.577 51.9858L129.761 54.9389L132.83 49.9412C133.116 49.4744 133.529 49.1088 134.016 48.8782L139.215 67.5021L152.252 63.8625L147.152 45.5919C147.156 45.5933 147.161 45.5943 147.166 45.5955L152.825 47.2572Z" fill="#179945"/>
<path d="M140.51 27.6567C140.299 26.9037 139.519 26.4639 138.766 26.674L130.645 28.9414C129.892 29.1517 129.452 29.9325 129.662 30.6853L131.143 35.9892L141.99 32.9608L140.51 27.6567Z" fill="#55696E"/>
<path d="M154.51 55.2792L134.278 60.3673L118.385 57.7848C118.471 57.2025 118.074 56.6573 117.491 56.5625L109.874 55.3247C109.609 55.2817 109.348 55.4219 109.238 55.6665C109.128 55.911 109.195 56.1993 109.403 56.3691L116.892 62.4946C117.025 62.6031 117.205 62.6325 117.365 62.5719C117.526 62.5112 117.641 62.3696 117.669 62.2006L117.859 61.03L133.085 63.5041L153.283 76.4079C153.781 76.7261 154.423 76.7054 154.9 76.3556C155.376 76.0059 155.589 75.3992 155.435 74.8286L153.065 66.0527C152.417 63.6547 153.101 61.0934 154.857 59.3372L156.104 58.0902C156.638 57.5571 156.749 56.7337 156.377 56.0779C156.005 55.4223 155.241 55.0953 154.51 55.2792Z" fill="#8C7216"/>
<path d="M154.51 55.2793L134.278 60.3673L118.385 57.7849C118.471 57.2025 118.074 56.6573 117.491 56.5625L109.874 55.3248C109.609 55.2817 109.348 55.422 109.238 55.6666C109.128 55.9111 109.195 56.1994 109.403 56.3692L116.892 62.4947C117.025 62.6032 117.205 62.6326 117.365 62.572C117.526 62.5113 117.641 62.3697 117.669 62.2006L117.859 61.03L133.085 63.5041L153.283 76.408C153.781 76.7262 154.423 76.7055 154.9 76.3557C155.376 76.0059 155.589 75.3993 155.435 74.8287L153.065 66.0528C152.417 63.6548 153.101 61.0935 154.857 59.3373L156.104 58.0902C156.638 57.5572 156.749 56.7338 156.377 56.0779C156.005 55.4223 155.241 55.0954 154.51 55.2793ZM147.92 61.3993L147.001 67.0557C146.937 67.4505 146.695 67.7721 146.371 67.9519C146.133 68.0835 145.851 68.1391 145.563 68.0922C144.879 67.9812 144.415 67.3371 144.526 66.6534L145.445 60.9971C145.556 60.3137 146.2 59.8496 146.884 59.9606C147.567 60.0715 148.031 60.7157 147.92 61.3993ZM151.04 61.0259C150.384 61.3892 149.557 61.1518 149.194 60.4959C148.831 59.8398 149.068 59.0133 149.724 58.65C150.38 58.2868 151.206 58.524 151.57 59.1801C151.933 59.836 151.696 60.6626 151.04 61.0259Z" fill="#50555A"/>
<path d="M109.238 55.6665C109.127 55.911 109.195 56.1993 109.403 56.3691L116.892 62.4946C117.025 62.6031 117.205 62.6325 117.365 62.5719C117.525 62.5112 117.641 62.3696 117.669 62.2006L117.859 61.0302L118.385 57.785C118.471 57.2026 118.074 56.6574 117.491 56.5626L109.874 55.3249C109.609 55.2818 109.348 55.4219 109.238 55.6665Z" fill="black"/>
<path d="M130.047 36.6661C129.453 36.6661 128.908 36.2734 128.741 35.6734C128.539 34.9514 128.961 34.2027 129.683 34.0011L142.34 30.4676C143.062 30.2658 143.811 30.6879 144.012 31.4099C144.214 32.132 143.792 32.8807 143.07 33.0823L130.413 36.6157C130.291 36.6497 130.168 36.6661 130.047 36.6661Z" fill="black"/>
<path d="M45.4566 4.85649C43.3493 2.81497 43.3151 0.353125 43.3151 0.329103C43.3151 0.147412 43.1676 0 42.986 0C42.8043 0 42.6569 0.14745 42.6569 0.329103V3.98104V14.0663C41.6629 13.0582 39.7106 12.8594 37.8905 13.6858C36.6316 14.2578 35.6502 15.2284 35.2648 16.2826C35.0133 16.9708 35.0282 17.6445 35.3069 18.231C35.7717 19.2081 36.8989 19.742 38.2141 19.742C38.949 19.742 39.7428 19.5751 40.512 19.2259C41.7709 18.6539 42.7526 17.6833 43.1377 16.6291C43.2964 16.1947 43.3154 15.7553 43.3154 15.3001C43.3154 15.0533 43.3154 14.8068 43.3154 14.5599C43.3154 14.2075 43.3154 13.855 43.3154 13.5028C43.3154 13.0819 43.3154 12.6613 43.3154 12.2403C43.3154 11.7884 43.3154 11.3366 43.3154 10.8843C43.3154 10.4384 43.3154 9.99273 43.3154 9.54679C43.3154 9.14427 43.3154 8.7421 43.3154 8.33958C43.3154 8.01769 43.3154 7.69614 43.3154 7.37425C43.3154 7.17054 43.3154 6.9668 43.3154 6.76274C43.3154 6.70976 43.3154 6.65643 43.3154 6.60345C43.662 7.36176 44.188 8.1951 44.9992 8.98101C46.6702 10.5996 46.9111 11.5432 46.9371 11.874C46.9506 12.0458 47.0941 12.1771 47.2649 12.1771C47.2691 12.1771 47.2734 12.1771 47.278 12.1768C47.4548 12.1699 47.594 12.0248 47.594 11.848V8.57722C47.6213 8.32149 47.6417 6.97308 45.4566 4.85649Z" fill="white"/>
<path d="M116.611 15.5296C114.504 13.4881 114.469 11.0263 114.469 11.0023C114.469 10.8206 114.322 10.6732 114.14 10.6732C113.959 10.6732 113.811 10.8206 113.811 11.0023V14.6542V24.7394C112.817 23.7313 110.865 23.5325 109.045 24.359C107.786 24.931 106.805 25.9016 106.419 26.9557C106.168 27.6439 106.183 28.3176 106.461 28.9041C106.926 29.8813 108.053 30.4151 109.368 30.4151C110.103 30.4151 110.897 30.2483 111.666 29.899C112.925 29.327 113.907 28.3564 114.292 27.3023C114.451 26.8678 114.47 26.4284 114.47 25.9733C114.47 25.7264 114.47 25.4799 114.47 25.2331C114.47 24.8806 114.47 24.5281 114.47 24.176C114.47 23.755 114.47 23.3344 114.47 22.9135C114.47 22.4616 114.47 22.0097 114.47 21.5575C114.47 21.1115 114.47 20.6659 114.47 20.2199C114.47 19.8174 114.47 19.4153 114.47 19.0127C114.47 18.6908 114.47 18.3693 114.47 18.0474C114.47 17.8437 114.47 17.64 114.47 17.4359C114.47 17.3829 114.47 17.3296 114.47 17.2766C114.816 18.0349 115.342 18.8683 116.154 19.6542C117.825 21.2728 118.065 22.2164 118.091 22.5471C118.105 22.719 118.248 22.8503 118.419 22.8503C118.424 22.8503 118.428 22.8503 118.432 22.85C118.609 22.8431 118.748 22.6979 118.748 22.5212V19.2504C118.776 18.9947 118.796 17.6462 116.611 15.5296Z" fill="white"/>
<path d="M66.1811 46.2706C67.7681 46.2706 69.0594 44.9794 69.0594 43.3923V34.5426L77.1185 31.4822V37.6506C76.6359 37.2853 76.0419 37.0602 75.3915 37.0602C73.8045 37.0602 72.5132 38.3514 72.5132 39.9384C72.5132 41.5255 73.8045 42.8167 75.3915 42.8167C76.9784 42.8167 78.2698 41.5255 78.2698 39.9384V27.1973C78.2698 27.0084 78.177 26.832 78.0218 26.724C77.8679 26.6173 77.6694 26.5914 77.4917 26.6582L68.2814 30.1122C68.0571 30.1964 67.9081 30.4112 67.9081 30.6513V41.1044C67.4255 40.7392 66.8314 40.514 66.1811 40.514C64.5942 40.514 63.3028 41.8054 63.3028 43.3923C63.3028 44.9793 64.5942 46.2706 66.1811 46.2706V46.2706Z" fill="white"/>
<path d="M96.1644 78.4424L86.9183 76.5178C85.4729 76.2169 84.545 74.8012 84.8459 73.3558C85.1467 71.911 86.5624 70.9831 88.0078 71.2839L95.5627 72.8565L99.8792 66.9191C100.747 65.7248 102.419 65.4608 103.613 66.3289C104.807 67.197 105.071 68.8686 104.203 70.0629L98.871 77.3973C98.2598 78.2382 97.2052 78.659 96.1644 78.4424V78.4424Z" fill="#80391B"/>
<path d="M93.7443 72.4782L88.0078 71.2839C86.5624 70.9831 85.1467 71.9109 84.8459 73.3563C84.545 74.8017 85.4729 76.2169 86.9183 76.5178L92.4319 77.6656L93.7443 72.4782Z" fill="#1ED760"/>
<path d="M72.7731 120.834C71.135 120.159 70.3544 118.284 71.0288 116.646L76.3736 103.674L76.7777 94.0191C76.8514 92.249 78.3489 90.8739 80.1166 90.9481C81.8863 91.0222 83.2613 92.5173 83.1872 94.2874L82.7596 104.507C82.7438 104.881 82.663 105.249 82.5205 105.595L76.9604 119.09C76.2889 120.721 74.4179 121.512 72.7731 120.834Z" fill="#748488"/>
<path d="M86.946 121.015C85.2132 120.648 84.1055 118.945 84.4728 117.212L87.431 103.243L83.4613 92.4188C82.851 90.7553 83.7047 88.9125 85.3682 88.3027C87.0316 87.6924 88.874 88.5461 89.4843 90.2096L93.7721 101.9C93.9796 102.466 94.0236 103.079 93.8988 103.669L90.7488 118.542C90.382 120.274 88.6793 121.382 86.946 121.015V121.015Z" fill="#55696E"/>
<path d="M90.931 94.153H76.772V74.9519C76.772 72.8847 78.4479 71.2093 80.5145 71.2093H87.1885C89.2556 71.2093 90.931 72.8847 90.931 74.9519V94.153Z" fill="#1DB954"/>
<path d="M89.4207 63.9356C89.4207 66.9951 86.9403 69.4755 83.8807 69.4755C80.8211 69.4755 78.3408 66.9951 78.3408 63.9356C78.3408 60.876 80.8211 58.3956 83.8807 58.3956C86.9403 58.3956 89.4207 60.876 89.4207 63.9356Z" fill="#80391B"/>
<path d="M100.325 86.5995L89.6813 87.4791C88.7893 87.5527 87.9198 87.1749 87.3641 86.4728L79.2906 76.26C78.3752 75.1021 78.5718 73.4209 79.7302 72.5055C80.8876 71.5891 82.5693 71.7866 83.4847 72.9445L90.6695 82.0329L99.8845 81.2714C101.356 81.15 102.647 82.2443 102.769 83.7155C102.89 85.1847 101.798 86.478 100.325 86.5995V86.5995Z" fill="#80391B"/>
<path d="M87.6376 78.1975L83.4847 72.9445C82.5693 71.7866 80.8876 71.5891 79.7302 72.5055C78.5718 73.4209 78.3752 75.1021 79.2906 76.26L83.3073 81.3403L87.6376 78.1975Z" fill="#1ED760"/>
<path d="M104.554 75.5024L96.7374 67.6949C96.2037 67.1616 96.2032 66.2969 96.7365 65.7636C97.2693 65.2298 98.134 65.2294 98.6678 65.7622L106.484 73.5701C107.018 74.1029 107.018 74.9677 106.485 75.5014C105.952 76.0347 105.088 76.0357 104.554 75.5024Z" fill="#50555A"/>
<path d="M99.3273 65.3628C99.3273 67.0143 97.9881 68.353 96.3371 68.353C94.6856 68.353 93.3464 67.0143 93.3464 65.3628C93.3464 63.7113 94.6856 62.3726 96.3371 62.3726C97.9881 62.3726 99.3273 63.7113 99.3273 65.3628Z" fill="#373C41"/>
<path d="M39.0715 49.4064V49.4142C39.081 49.4138 39.082 49.4115 39.0715 49.4064Z" fill="#EDB59E"/>
<path d="M15.8156 47.151C15.9069 47.9655 16.4614 48.6535 17.238 48.9155L25.7714 51.7949L22.6901 66.3476H35.0684L35.4809 64.3997C35.5788 64.6384 35.7207 64.8637 35.9104 65.0609C36.7181 65.9014 38.0537 65.9273 38.8937 65.1202L45.3431 58.9223C45.7771 58.5052 46.0124 57.9224 45.9895 57.3207C45.9666 56.7191 45.6877 56.1558 45.2234 55.773L39.3991 50.971C38.8374 50.5079 38.172 50.1872 37.4597 50.0363L27.5225 47.9324L19.8599 45.3468L18.6746 34.7538C18.545 33.5956 17.5011 32.7612 16.343 32.8917C15.1852 33.0212 14.3513 34.0651 14.4809 35.2231L15.8156 47.151ZM37.4978 54.8736L40.7103 57.5216L35.9733 62.0739L37.4978 54.8736Z" fill="#EDB59E"/>
<path d="M39.0715 49.4065V49.4142C39.081 49.4139 39.082 49.4115 39.0715 49.4065Z" fill="#1ED760"/>
<path d="M17.2381 48.9155L25.7715 51.7949L22.6902 66.3476H35.0684L35.4809 64.3996C35.5788 64.6384 35.7207 64.8636 35.9104 65.0609C36.3247 65.492 36.8778 65.7088 37.4319 65.7088C37.9577 65.7086 38.4845 65.5133 38.8936 65.12L45.343 58.9221C45.777 58.505 46.0123 57.9223 45.9894 57.3205C45.9665 56.7189 45.6876 56.1557 45.2233 55.7728L39.399 50.9709C38.8372 50.5077 38.1719 50.1871 37.4596 50.0362L35.2538 49.5691C35.003 50.7546 33.8359 51.6769 32.6237 51.6769C31.1224 51.6769 30.0107 50.4498 29.9457 48.9989C29.9372 48.813 29.9526 48.6306 29.9879 48.4541L27.5223 47.9319L19.8598 45.3465L19.5924 42.9564L15.4257 43.666L15.8157 47.1507C15.9069 47.9654 16.4614 48.6534 17.2381 48.9155ZM37.4979 54.8735L40.7104 57.5216L35.9733 62.0739L37.4979 54.8735Z" fill="#1ED760"/>
<path d="M33.8744 47.3733C36.4913 47.3733 38.6128 45.2518 38.6128 42.6349C38.6128 40.0179 36.4913 37.8965 33.8744 37.8965C31.2574 37.8965 29.136 40.0179 29.136 42.6349C29.136 45.2518 31.2574 47.3733 33.8744 47.3733Z" fill="#EDB59E"/>
<path d="M41.2553 44.2431L39.2629 43.8212L39.5006 42.6984C39.8073 41.25 39.5315 39.7691 38.7243 38.5281C37.9172 37.2872 36.675 36.4348 35.2267 36.1282C32.2372 35.495 29.2897 37.4126 28.6564 40.4023L28.4187 41.5252L26.4262 41.1031L26.664 39.9803C27.5297 35.8919 31.5589 33.2699 35.6486 34.1357C37.629 34.555 39.3278 35.7204 40.4316 37.4174C41.5355 39.1143 41.9124 41.1396 41.493 43.1201L41.2553 44.2431Z" fill="#87AFB9"/>
<path d="M29.1188 39.0743C28.8808 38.8606 28.6001 38.71 28.2853 38.6433C27.0627 38.3843 25.7944 39.4829 25.4528 41.0968C25.111 42.7107 25.8252 44.229 27.0478 44.4878C27.3625 44.5544 27.6803 44.5306 27.9844 44.4316L29.1188 39.0743Z" fill="#DD3E3E"/>
<path d="M39.6171 41.2929C39.9214 41.194 40.239 41.17 40.5537 41.2367C41.7763 41.4957 42.4905 43.0139 42.1487 44.6277C41.807 46.2417 40.5388 47.3402 39.3162 47.0812C39.0015 47.0146 38.7207 46.8639 38.4827 46.6502L39.6171 41.2929Z" fill="#DD3E3E"/>
<path d="M14.6052 95.6503H0V67.9324C0 67.0449 0.719395 66.3256 1.60674 66.3256H12.9983C13.8858 66.3256 14.605 67.045 14.605 67.9324V95.6503H14.6052Z" fill="#87AFB9"/>
<path d="M62.4577 95.6903H47.8524V67.9722C47.8524 67.0847 48.5718 66.3655 49.4592 66.3655H60.8507C61.7382 66.3655 62.4575 67.0849 62.4575 67.9722V95.6903H62.4577Z" fill="#87AFB9"/>
<path d="M42.1177 66.3455H41.3491V65.9236H28.9934V66.3455H27.9299V65.9236H24.7391V66.3455H23.4944V65.9236H20.3036V66.3472C19.433 66.3666 18.7328 67.077 18.7328 67.9522V95.6703H43.7246V67.9523C43.7247 67.0649 43.0052 66.3455 42.1177 66.3455Z" fill="#55696E"/>
<path d="M27.9299 66.3474V64.9235C27.9299 64.6611 27.7172 64.4482 27.4547 64.4482H25.2143C24.9519 64.4482 24.739 64.661 24.739 64.9235V66.3474H27.9299V66.3474Z" fill="#B03128"/>
<path d="M41.3493 66.3474V64.3125C41.3493 64.0501 41.1365 63.8373 40.874 63.8373H29.4687C29.2063 63.8373 28.9934 64.05 28.9934 64.3125V66.3474H41.3493Z" fill="#3C5A73"/>
<path d="M23.4946 66.3474V64.9235C23.4946 64.6611 23.2818 64.4482 23.0193 64.4482H20.7789C20.5165 64.4482 20.3036 64.661 20.3036 64.9235V66.3474H23.4946V66.3474Z" fill="#05CDFF"/>
<path d="M7.30265 79.4146C9.98349 79.4146 12.1567 77.2413 12.1567 74.5605C12.1567 71.8797 9.98349 69.7064 7.30265 69.7064C4.62182 69.7064 2.44858 71.8797 2.44858 74.5605C2.44858 77.2413 4.62182 79.4146 7.30265 79.4146Z" fill="#55696E"/>
<path d="M7.30264 76.3596C8.29626 76.3596 9.10174 75.5541 9.10174 74.5605C9.10174 73.5669 8.29626 72.7614 7.30264 72.7614C6.30903 72.7614 5.50354 73.5669 5.50354 74.5605C5.50354 75.5541 6.30903 76.3596 7.30264 76.3596Z" fill="#87AFB9"/>
<path d="M7.30265 89.8014C9.15857 89.8014 10.6631 88.2969 10.6631 86.441C10.6631 84.585 9.15857 83.0805 7.30265 83.0805C5.44672 83.0805 3.9422 84.585 3.9422 86.441C3.9422 88.2969 5.44672 89.8014 7.30265 89.8014Z" fill="#55696E"/>
<path d="M7.30264 87.6864C7.99048 87.6864 8.54808 87.1288 8.54808 86.4409C8.54808 85.7531 7.99048 85.1955 7.30264 85.1955C6.6148 85.1955 6.05719 85.7531 6.05719 86.4409C6.05719 87.1288 6.6148 87.6864 7.30264 87.6864Z" fill="#87AFB9"/>
<path d="M55.1547 79.0752C57.8355 79.0752 60.0088 76.9019 60.0088 74.2211C60.0088 71.5402 57.8355 69.367 55.1547 69.367C52.4738 69.367 50.3006 71.5402 50.3006 74.2211C50.3006 76.9019 52.4738 79.0752 55.1547 79.0752Z" fill="#55696E"/>
<path d="M55.1547 76.0201C56.1483 76.0201 56.9538 75.2147 56.9538 74.221C56.9538 73.2274 56.1483 72.4219 55.1547 72.4219C54.1611 72.4219 53.3556 73.2274 53.3556 74.221C53.3556 75.2147 54.1611 76.0201 55.1547 76.0201Z" fill="#87AFB9"/>
<path d="M55.1547 89.4619C57.0106 89.4619 58.5151 87.9574 58.5151 86.1015C58.5151 84.2456 57.0106 82.741 55.1547 82.741C53.2987 82.741 51.7942 84.2456 51.7942 86.1015C51.7942 87.9574 53.2987 89.4619 55.1547 89.4619Z" fill="#55696E"/>
<path d="M55.1547 87.3469C55.8425 87.3469 56.4001 86.7893 56.4001 86.1015C56.4001 85.4136 55.8425 84.856 55.1547 84.856C54.4668 84.856 53.9092 85.4136 53.9092 86.1015C53.9092 86.7893 54.4668 87.3469 55.1547 87.3469Z" fill="#87AFB9"/>
<path d="M40.0319 69.6182H21.7848V92.6148H40.0319V69.6182Z" fill="#415050"/>
<path d="M39.7042 58.4885L35.9695 62.0775C35.1293 62.8848 35.1026 64.2206 35.9101 65.0608C36.3244 65.4919 36.8776 65.7087 37.4316 65.7087C37.9574 65.7087 38.4842 65.5132 38.8933 65.12L42.8211 61.3454L39.7042 58.4885Z" fill="#EDB59E"/>
</svg>
