<svg width="192" height="192" viewBox="0 0 192 192" fill="none" xmlns="http://www.w3.org/2000/svg">
<path d="M96 0C42.9806 0 0 42.9806 0 96C0 149.019 42.9806 192 96 192C149.019 192 192 149.019 192 96C192 42.9806 149.019 0 96 0ZM137.781 139.322C136.56 141.411 134.363 142.575 132.107 142.576C130.981 142.576 129.842 142.286 128.8 141.678C111.549 131.596 91.6195 129.976 77.9352 130.392C62.7768 130.853 51.6605 133.845 51.5501 133.876C48.0557 134.831 44.4446 132.774 43.4861 129.28C42.5281 125.787 44.5771 122.178 48.0696 121.216C48.5707 121.078 60.5328 117.829 77.1672 117.28C86.9654 116.957 96.3984 117.64 105.2 119.31C116.348 121.424 126.516 125.136 135.425 130.343C138.555 132.172 139.609 136.192 137.781 139.322ZM149.985 113.974C148.539 116.448 145.937 117.828 143.264 117.828C141.932 117.828 140.581 117.486 139.348 116.764C118.914 104.822 95.3059 102.904 79.0968 103.396C61.141 103.943 47.9735 107.487 47.8429 107.523C43.7048 108.652 39.4266 106.218 38.2912 102.08C37.1562 97.9411 39.5837 93.6672 43.7205 92.5272C44.314 92.364 58.4832 88.5149 78.1872 87.8654C89.7946 87.4829 100.968 88.2912 111.393 90.2688C124.597 92.7744 136.643 97.1707 147.195 103.337C150.903 105.504 152.152 110.267 149.985 113.974ZM157.488 90.9269C155.853 90.9269 154.197 90.5064 152.684 89.6222C104.103 61.2307 41.0842 78.1094 40.4534 78.2837C35.3743 79.6829 30.1236 76.7002 28.7246 71.6213C27.3252 66.5424 30.3082 61.2917 35.3868 59.8925C36.1146 59.6918 53.495 54.971 77.664 54.1742C91.9018 53.7053 105.606 54.697 118.394 57.1224C134.591 60.1954 149.366 65.5882 162.309 73.1525C166.857 75.8102 168.389 81.6514 165.732 86.1994C163.958 89.2344 160.766 90.9269 157.488 90.9269Z" fill="#00D95F"/>
</svg>
