<svg width="512" height="512" viewBox="0 0 512 512" fill="none" xmlns="http://www.w3.org/2000/svg">
<path d="M256 0C114.615 0 0 114.615 0 256C0 397.385 114.615 512 256 512C397.385 512 512 397.385 512 256C512 114.615 397.385 0 256 0ZM367.415 371.526C364.16 377.096 358.301 380.201 352.284 380.202C349.284 380.202 346.245 379.43 343.468 377.807C297.464 350.922 244.319 346.602 207.827 347.712C167.405 348.941 137.761 356.92 137.467 357.002C128.148 359.548 118.519 354.065 115.963 344.748C113.408 335.432 118.872 325.809 128.186 323.242C129.522 322.875 161.421 314.211 205.779 312.748C231.908 311.886 257.062 313.706 280.532 318.159C310.26 323.798 337.377 333.697 361.133 347.58C369.481 352.458 372.292 363.18 367.415 371.526ZM399.96 303.931C396.105 310.529 389.166 314.207 382.038 314.208C378.484 314.208 374.884 313.295 371.594 311.372C317.103 279.525 254.149 274.41 210.925 275.724C163.043 277.18 127.929 286.633 127.581 286.728C116.546 289.74 105.138 283.249 102.11 272.212C99.0831 261.176 105.557 249.779 116.588 246.739C118.171 246.304 155.955 236.04 208.499 234.308C239.452 233.288 269.247 235.443 297.047 240.717C332.26 247.398 364.381 259.122 392.52 275.566C402.409 281.344 405.74 294.044 399.96 303.931ZM419.967 242.472C415.608 242.472 411.192 241.35 407.156 238.993C277.608 163.282 109.558 208.292 107.876 208.756C94.3314 212.488 80.3297 204.534 76.599 190.99C72.8673 177.446 80.8218 163.444 94.3649 159.713C96.3055 159.178 142.653 146.589 207.104 144.465C245.071 143.214 281.617 145.859 315.717 152.326C358.909 160.521 398.31 174.902 432.824 195.073C444.952 202.161 449.038 217.737 441.951 229.865C437.222 237.958 428.71 242.472 419.967 242.472Z" fill="#00D95F"/>
</svg>
